<svg viewBox="0 0 64 64">
  <path d="M61.934,9.674c-0.011-0.032-0.019-0.064-0.034-0.095c-0.048-0.103-0.108-0.2-0.191-0.283
    c-0.001-0.001-0.002-0.003-0.003-0.004l-6.998-6.998c-0.001-0.001-0.003-0.002-0.005-0.004c-0.084-0.083-0.182-0.144-0.285-0.192
    c-0.028-0.013-0.057-0.02-0.086-0.031c-0.09-0.032-0.182-0.051-0.277-0.056C54.035,2.01,54.019,2,54,2H7C4.243,2,2,4.243,2,7v50
    c0,2.757,2.243,5,5,5h50c2.757,0,5-2.243,5-5V10c0-0.022-0.011-0.04-0.012-0.062C61.982,9.847,61.964,9.76,61.934,9.674z M58.586,9
    H55V5.414L58.586,9z M60,57c0,1.654-1.346,3-3,3H7c-1.654,0-3-1.346-3-3V7c0-1.654,1.346-3,3-3h46v6c0,0.553,0.448,1,1,1h6V57z"/>
  <path d="M50,37c0.552,0,1-0.447,1-1v-5V10c0-0.553-0.448-1-1-1h-5h-5h-5h-5H8c-0.552,0-1,0.447-1,1v4.275v4.449V23v13v19
    c0,0.553,0.448,1,1,1h18c0.552,0,1-0.447,1-1v-6v-8v-4H50z M26,35H9V24h20v7c0,0.553,0.448,1,1,1h19v3H26z M29,21.929
    c-3.061-0.439-5.489-2.867-5.929-5.929H29V21.929z M49,30H31v-7v-8v-4h3v3v10c0,0.553,0.448,1,1,1h10c0.552,0,1-0.447,1-1V14v-3h3
    V30z M40,15h4v8h-8v-8H40z M44,13h-3v-2h3V13z M39,11v2h-3v-2H39z M29,11v3h-7c-0.552,0-1,0.447-1,1c0,2.826,1.312,5.349,3.356,7H9
    v-2.093C9.489,19.965,9.988,20,10.5,20c3.23,0,6.5-1.202,6.5-3.5c0-2.665-4.373-3.823-8-3.403V11H29z M9,15.104
    C9.482,15.035,9.984,15,10.5,15c2.923,0,4.5,1.064,4.5,1.5S13.423,18,10.5,18c-0.516,0-1.018-0.035-1.5-0.104V15.104z M25,47.929
    c-3.061-0.439-5.489-2.867-5.929-5.929H25V47.929z M25,40h-7c-0.552,0-1,0.447-1,1c0,4.625,3.507,8.442,8,8.941V54H9V37h16V40z"/>
  <rect x="40" y="45" width="12" height="2"/>
  <rect x="54" y="45" width="3" height="2"/>
  <rect x="40" y="49" width="12" height="2"/>
  <rect x="54" y="49" width="3" height="2"/>
  <rect x="40" y="53" width="12" height="2"/>
  <rect x="54" y="53" width="3" height="2"/>
  <rect x="43" y="41" width="11" height="2"/>
</svg>
