<svg viewBox="0 0 512 512">
	<path d="M425.521,351.317c-3.742,0-7.478,0.267-11.176,0.745v-32.54c0-4.142-3.357-7.5-7.5-7.5s-7.5,3.358-7.5,7.5
		v69.769c-0.52-0.014-1.036-0.04-1.559-0.04c-5.69,0-11.187,0.829-16.395,2.345v-71.313c0-9.8-7.973-17.772-17.773-17.772h-18.49
		c-9.8,0-17.772,7.973-17.772,17.772v79.838h-22.991v-79.838c0-9.8-7.973-17.772-17.772-17.772h-79.859
		c-9.8,0-17.772,7.973-17.772,17.772v79.838h-22.991v-79.838c0-9.8-7.973-17.772-17.772-17.772h-18.49
		c-9.8,0-17.772,7.973-17.772,17.772v79.838H93.979V246.509l152.683-137.082l152.683,137.082v40.352c0,4.142,3.357,7.5,7.5,7.5
		s7.5-3.358,7.5-7.5v-26.884l2.761,2.479c7.293,6.546,18.551,5.939,25.098-1.352l17.157-19.11
		c6.545-7.292,5.939-18.549-1.352-25.096l-81.986-73.609c-3.083-2.769-7.825-2.511-10.592,0.57
		c-2.767,3.083-2.512,7.824,0.57,10.591l81.986,73.609c1.138,1.021,1.231,2.778,0.211,3.915l-17.157,19.11
		c-1.021,1.137-2.778,1.231-3.915,0.211L251.673,93.767c-2.852-2.56-7.17-2.56-10.021,0L66.198,251.292
		c-0.743,0.668-1.578,0.729-2.001,0.706c-0.429-0.023-1.247-0.173-1.914-0.917l-17.157-19.108c-1.021-1.138-0.927-2.895,0.211-3.916
		l190.895-171.39c5.945-5.339,14.916-5.339,20.861,0l84.594,75.95c3.082,2.768,7.824,2.511,10.592-0.57
		c2.767-3.083,2.512-7.824-0.57-10.591l-84.594-75.95c-11.661-10.469-29.245-10.468-40.904,0L35.315,216.896
		c-7.291,6.547-7.896,17.805-1.352,25.097l17.157,19.109c3.172,3.533,7.528,5.619,12.27,5.874c0.327,0.018,0.652,0.026,0.978,0.026
		c4.386,0,8.563-1.596,11.852-4.549l2.76-2.478v91.666c-16.194,1.379-31.477,7.222-44.576,17.117
		c-3.306,2.497-3.961,7.2-1.464,10.505c1.475,1.952,3.719,2.98,5.99,2.98c1.574,0,3.162-0.494,4.515-1.516
		c10.471-7.91,22.635-12.677,35.535-14.012v92.628H18.303C16.109,452.406,15,445.179,15,437.796c0-12.168,3.125-24.196,9.036-34.783
		c2.02-3.616,0.726-8.185-2.892-10.205c-3.617-2.019-8.186-0.725-10.204,2.892C3.783,408.518,0,423.074,0,437.796
		c0,10.979,2.032,21.681,6.041,31.809c1.132,2.861,3.896,4.74,6.974,4.74h485.971c3.077,0,5.842-1.879,6.974-4.74
		c4.009-10.128,6.041-20.83,6.041-31.809C512,390.111,473.205,351.317,425.521,351.317z M342.355,320.284
		c0-1.529,1.244-2.772,2.772-2.772h18.49c1.529,0,2.773,1.244,2.773,2.772v78.098c-0.878,0.558-1.74,1.138-2.586,1.74h-21.45
		V320.284z M349.125,415.122c-6.363,9.388-10.084,20.705-10.084,32.875c0,3.841,0.374,7.632,1.102,11.348h-35.778v-44.223H349.125z
		 M206.732,317.512h79.859c1.528,0,2.772,1.244,2.772,2.772v139.061H203.96V320.284C203.96,318.755,205.204,317.512,206.732,317.512
		z M126.934,320.284c0-1.529,1.244-2.772,2.772-2.772h18.49c1.528,0,2.772,1.244,2.772,2.772v79.838h-24.035V320.284z
		 M93.979,459.345v-44.223h94.98v44.223h-29.016H93.979z M406.845,459.345h-51.32c-0.985-3.679-1.483-7.478-1.483-11.348
		c0-24.122,19.624-43.746,43.745-43.746s43.745,19.624,43.745,43.746c0,3.871-0.497,7.67-1.483,11.348H406.845z M493.697,459.345
		H455.43c0.728-3.715,1.101-7.506,1.101-11.348c0-26.643-17.834-49.185-42.187-56.354v-24.45c3.681-0.577,7.426-0.876,11.176-0.876
		c39.414,0,71.479,32.065,71.479,71.479C497,445.179,495.891,452.406,493.697,459.345z"/>
	<path d="M272.344,404.434c4.143,0,7.5-3.358,7.5-7.5v-8.507c0-4.142-3.357-7.5-7.5-7.5s-7.5,3.358-7.5,7.5v8.507
		C264.844,401.077,268.201,404.434,272.344,404.434z"/>
	<path d="M198.116,228.503c0,26.769,21.777,48.546,48.546,48.546s48.546-21.778,48.546-48.546
		c0-26.768-21.777-48.546-48.546-48.546S198.116,201.735,198.116,228.503z M280.208,228.503c0,18.498-15.049,33.546-33.546,33.546
		s-33.546-15.049-33.546-33.546c0-18.497,15.049-33.546,33.546-33.546S280.208,210.006,280.208,228.503z"/>
</svg>
