<svg viewBox="0 0 700 700">
 <g>
  <path d="m603.75 17.5h-507.5c-4.8398 0-8.75 3.9102-8.75 8.75v507.5c0 4.8398 3.9102 8.75 8.75 8.75h507.5c4.8398 0 8.75-3.9102 8.75-8.75v-507.5c0-4.8398-3.9102-8.75-8.75-8.75zm-367.5 507.5v-17.5c0-33.766 27.484-61.25 61.25-61.25h105c33.766 0 61.25 27.484 61.25 61.25v17.5zm-43.75-175h-17.5v-87.5h17.5zm17.5-140h280v218.75h-280zm131.25-61.25c0-4.8281 3.9219-8.75 8.75-8.75s8.75 3.9219 8.75 8.75-3.9219 8.75-8.75 8.75-8.75-3.9219-8.75-8.75zm166.25 113.75h17.5v87.5h-17.5zm87.5 262.5h-113.75v-17.5c0-24.727-11.48-46.805-29.355-61.25h46.855c4.8398 0 8.75-3.9102 8.75-8.75v-70h26.25c4.8398 0 8.75-3.9102 8.75-8.75v-105c0-4.8398-3.9102-8.75-8.75-8.75h-26.25v-43.75c0-4.8398-3.9102-8.75-8.75-8.75h-140v-19.109c10.16-3.6211 17.5-13.246 17.5-24.641 0-14.473-11.777-26.25-26.25-26.25s-26.25 11.777-26.25 26.25c0 11.391 7.3398 21.016 17.5 24.641v19.109h-140c-4.8398 0-8.75 3.9102-8.75 8.75v43.75h-26.25c-4.8398 0-8.75 3.9102-8.75 8.75v105c0 4.8398 3.9102 8.75 8.75 8.75h26.25v70c0 4.8398 3.9102 8.75 8.75 8.75h46.855c-17.875 14.445-29.355 36.523-29.355 61.25v17.5h-113.75v-420h490zm0-437.5h-490v-52.5h490z"/>
  <path d="m122.5 52.5h17.5v17.5h-17.5z"/>
  <path d="m157.5 52.5h17.5v17.5h-17.5z"/>
  <path d="m192.5 52.5h17.5v17.5h-17.5z"/>
  <path d="m315 52.5h262.5v17.5h-262.5z"/>
  <path d="m308.81 329.94 12.375-12.375-24.441-24.438 24.441-24.438-12.375-12.375-24.438 24.441-24.438-24.441-12.375 12.375 24.441 24.438-24.441 24.438 12.375 12.375 24.438-24.441z"/>
  <path d="m391.19 329.94 24.438-24.441 24.438 24.441 12.375-12.375-24.441-24.438 24.441-24.438-12.375-12.375-24.438 24.441-24.438-24.441-12.375 12.375 24.441 24.438-24.441 24.438z"/>
  <path d="m402.5 411.25c4.8398 0 8.75-3.9102 8.75-8.75 0-33.766-27.484-61.25-61.25-61.25s-61.25 27.484-61.25 61.25c0 4.8398 3.9102 8.75 8.75 8.75zm-52.5-52.5c21.133 0 38.805 15.059 42.867 35h-85.742c4.0703-19.941 21.742-35 42.875-35z"/>
 </g>
</svg>
