<svg width="0" height="0" style="display: none" xmlns="http://www.w3.org/2000/svg" xmlns:xlink="http://www.w3.org/1999/xlink">
<defs>

<symbol id="architecture-plan" preserveAspectRatio="xMinYMin meet" viewBox="0 0 64 64">
  <path d="M61.934,9.674c-0.011-0.032-0.019-0.064-0.034-0.095c-0.048-0.103-0.108-0.2-0.191-0.283
    c-0.001-0.001-0.002-0.003-0.003-0.004l-6.998-6.998c-0.001-0.001-0.003-0.002-0.005-0.004c-0.084-0.083-0.182-0.144-0.285-0.192
    c-0.028-0.013-0.057-0.02-0.086-0.031c-0.09-0.032-0.182-0.051-0.277-0.056C54.035,2.01,54.019,2,54,2H7C4.243,2,2,4.243,2,7v50
    c0,2.757,2.243,5,5,5h50c2.757,0,5-2.243,5-5V10c0-0.022-0.011-0.04-0.012-0.062C61.982,9.847,61.964,9.76,61.934,9.674z M58.586,9
    H55V5.414L58.586,9z M60,57c0,1.654-1.346,3-3,3H7c-1.654,0-3-1.346-3-3V7c0-1.654,1.346-3,3-3h46v6c0,0.553,0.448,1,1,1h6V57z"/>
  <path d="M50,37c0.552,0,1-0.447,1-1v-5V10c0-0.553-0.448-1-1-1h-5h-5h-5h-5H8c-0.552,0-1,0.447-1,1v4.275v4.449V23v13v19
    c0,0.553,0.448,1,1,1h18c0.552,0,1-0.447,1-1v-6v-8v-4H50z M26,35H9V24h20v7c0,0.553,0.448,1,1,1h19v3H26z M29,21.929
    c-3.061-0.439-5.489-2.867-5.929-5.929H29V21.929z M49,30H31v-7v-8v-4h3v3v10c0,0.553,0.448,1,1,1h10c0.552,0,1-0.447,1-1V14v-3h3
    V30z M40,15h4v8h-8v-8H40z M44,13h-3v-2h3V13z M39,11v2h-3v-2H39z M29,11v3h-7c-0.552,0-1,0.447-1,1c0,2.826,1.312,5.349,3.356,7H9
    v-2.093C9.489,19.965,9.988,20,10.5,20c3.23,0,6.5-1.202,6.5-3.5c0-2.665-4.373-3.823-8-3.403V11H29z M9,15.104
    C9.482,15.035,9.984,15,10.5,15c2.923,0,4.5,1.064,4.5,1.5S13.423,18,10.5,18c-0.516,0-1.018-0.035-1.5-0.104V15.104z M25,47.929
    c-3.061-0.439-5.489-2.867-5.929-5.929H25V47.929z M25,40h-7c-0.552,0-1,0.447-1,1c0,4.625,3.507,8.442,8,8.941V54H9V37h16V40z"/>
  <rect x="40" y="45" width="12" height="2"/>
  <rect x="54" y="45" width="3" height="2"/>
  <rect x="40" y="49" width="12" height="2"/>
  <rect x="54" y="49" width="3" height="2"/>
  <rect x="40" y="53" width="12" height="2"/>
  <rect x="54" y="53" width="3" height="2"/>
  <rect x="43" y="41" width="11" height="2"/>
</symbol>

<symbol id="arrow" preserveAspectRatio="xMinYMin meet" viewBox="0 0 32 32">
  <path d="M21.698,15.286l-9.002-8.999  c-0.395-0.394-1.035-0.394-1.431,0c-0.395,0.394-0.395,1.034,0,1.428L19.553,16l-8.287,8.285c-0.395,0.394-0.395,1.034,0,1.429  c0.395,0.394,1.036,0.394,1.431,0l9.002-8.999C22.088,16.325,22.088,15.675,21.698,15.286z"/>
</symbol>

<symbol id="close" preserveAspectRatio="xMinYMin meet" viewBox="0 0 384 512">
  <path d="M342.6 150.6c12.5-12.5 12.5-32.8 0-45.3s-32.8-12.5-45.3 0L192 210.7 86.6 105.4c-12.5-12.5-32.8-12.5-45.3 0s-12.5 32.8 0 45.3L146.7 256 41.4 361.4c-12.5 12.5-12.5 32.8 0 45.3s32.8 12.5 45.3 0L192 301.3 297.4 406.6c12.5 12.5 32.8 12.5 45.3 0s12.5-32.8 0-45.3L237.3 256 342.6 150.6z"/>
</symbol>
<symbol id="facebook" preserveAspectRatio="xMinYMin meet">
  <g transform="translate(-385.000000, -7399.000000)">
      <g  transform="translate(56.000000, 160.000000)">
          <path d="M335.821282,7259 L335.821282,7250 L338.553693,7250 L339,7246 L335.821282,7246 L335.821282,7244.052 C335.821282,7243.022 335.847593,7242 337.286884,7242 L338.744689,7242 L338.744689,7239.14 C338.744689,7239.097 337.492497,7239 336.225687,7239 C333.580004,7239 331.923407,7240.657 331.923407,7243.7 L331.923407,7246 L329,7246 L329,7250 L331.923407,7250 L331.923407,7259 L335.821282,7259 Z"></path>
      </g>
  </g>
</symbol>

<symbol id="home" preserveAspectRatio="xMinYMin meet" viewBox="0 0 512 512">
	<path d="M425.521,351.317c-3.742,0-7.478,0.267-11.176,0.745v-32.54c0-4.142-3.357-7.5-7.5-7.5s-7.5,3.358-7.5,7.5
		v69.769c-0.52-0.014-1.036-0.04-1.559-0.04c-5.69,0-11.187,0.829-16.395,2.345v-71.313c0-9.8-7.973-17.772-17.773-17.772h-18.49
		c-9.8,0-17.772,7.973-17.772,17.772v79.838h-22.991v-79.838c0-9.8-7.973-17.772-17.772-17.772h-79.859
		c-9.8,0-17.772,7.973-17.772,17.772v79.838h-22.991v-79.838c0-9.8-7.973-17.772-17.772-17.772h-18.49
		c-9.8,0-17.772,7.973-17.772,17.772v79.838H93.979V246.509l152.683-137.082l152.683,137.082v40.352c0,4.142,3.357,7.5,7.5,7.5
		s7.5-3.358,7.5-7.5v-26.884l2.761,2.479c7.293,6.546,18.551,5.939,25.098-1.352l17.157-19.11
		c6.545-7.292,5.939-18.549-1.352-25.096l-81.986-73.609c-3.083-2.769-7.825-2.511-10.592,0.57
		c-2.767,3.083-2.512,7.824,0.57,10.591l81.986,73.609c1.138,1.021,1.231,2.778,0.211,3.915l-17.157,19.11
		c-1.021,1.137-2.778,1.231-3.915,0.211L251.673,93.767c-2.852-2.56-7.17-2.56-10.021,0L66.198,251.292
		c-0.743,0.668-1.578,0.729-2.001,0.706c-0.429-0.023-1.247-0.173-1.914-0.917l-17.157-19.108c-1.021-1.138-0.927-2.895,0.211-3.916
		l190.895-171.39c5.945-5.339,14.916-5.339,20.861,0l84.594,75.95c3.082,2.768,7.824,2.511,10.592-0.57
		c2.767-3.083,2.512-7.824-0.57-10.591l-84.594-75.95c-11.661-10.469-29.245-10.468-40.904,0L35.315,216.896
		c-7.291,6.547-7.896,17.805-1.352,25.097l17.157,19.109c3.172,3.533,7.528,5.619,12.27,5.874c0.327,0.018,0.652,0.026,0.978,0.026
		c4.386,0,8.563-1.596,11.852-4.549l2.76-2.478v91.666c-16.194,1.379-31.477,7.222-44.576,17.117
		c-3.306,2.497-3.961,7.2-1.464,10.505c1.475,1.952,3.719,2.98,5.99,2.98c1.574,0,3.162-0.494,4.515-1.516
		c10.471-7.91,22.635-12.677,35.535-14.012v92.628H18.303C16.109,452.406,15,445.179,15,437.796c0-12.168,3.125-24.196,9.036-34.783
		c2.02-3.616,0.726-8.185-2.892-10.205c-3.617-2.019-8.186-0.725-10.204,2.892C3.783,408.518,0,423.074,0,437.796
		c0,10.979,2.032,21.681,6.041,31.809c1.132,2.861,3.896,4.74,6.974,4.74h485.971c3.077,0,5.842-1.879,6.974-4.74
		c4.009-10.128,6.041-20.83,6.041-31.809C512,390.111,473.205,351.317,425.521,351.317z M342.355,320.284
		c0-1.529,1.244-2.772,2.772-2.772h18.49c1.529,0,2.773,1.244,2.773,2.772v78.098c-0.878,0.558-1.74,1.138-2.586,1.74h-21.45
		V320.284z M349.125,415.122c-6.363,9.388-10.084,20.705-10.084,32.875c0,3.841,0.374,7.632,1.102,11.348h-35.778v-44.223H349.125z
		 M206.732,317.512h79.859c1.528,0,2.772,1.244,2.772,2.772v139.061H203.96V320.284C203.96,318.755,205.204,317.512,206.732,317.512
		z M126.934,320.284c0-1.529,1.244-2.772,2.772-2.772h18.49c1.528,0,2.772,1.244,2.772,2.772v79.838h-24.035V320.284z
		 M93.979,459.345v-44.223h94.98v44.223h-29.016H93.979z M406.845,459.345h-51.32c-0.985-3.679-1.483-7.478-1.483-11.348
		c0-24.122,19.624-43.746,43.745-43.746s43.745,19.624,43.745,43.746c0,3.871-0.497,7.67-1.483,11.348H406.845z M493.697,459.345
		H455.43c0.728-3.715,1.101-7.506,1.101-11.348c0-26.643-17.834-49.185-42.187-56.354v-24.45c3.681-0.577,7.426-0.876,11.176-0.876
		c39.414,0,71.479,32.065,71.479,71.479C497,445.179,495.891,452.406,493.697,459.345z"/>
	<path d="M272.344,404.434c4.143,0,7.5-3.358,7.5-7.5v-8.507c0-4.142-3.357-7.5-7.5-7.5s-7.5,3.358-7.5,7.5v8.507
		C264.844,401.077,268.201,404.434,272.344,404.434z"/>
	<path d="M198.116,228.503c0,26.769,21.777,48.546,48.546,48.546s48.546-21.778,48.546-48.546
		c0-26.768-21.777-48.546-48.546-48.546S198.116,201.735,198.116,228.503z M280.208,228.503c0,18.498-15.049,33.546-33.546,33.546
		s-33.546-15.049-33.546-33.546c0-18.497,15.049-33.546,33.546-33.546S280.208,210.006,280.208,228.503z"/>
</symbol>

<symbol id="instagram" preserveAspectRatio="xMinYMin meet" fill="none" stroke-width="2" stroke-linecap="round" stroke-linejoin="round">
  <rect x="2" y="2" width="20" height="20" rx="5" ry="5"></rect>
  <path d="M16 11.37A4 4 0 1 1 12.63 8 4 4 0 0 1 16 11.37z"></path>
  <line x1="17.5" y1="6.5" x2="17.5" y2="6.5"></line>
</symbol>

<symbol id="interior" preserveAspectRatio="xMinYMin meet" viewBox="0 0 64 64">
  <path d="M61.708,41H60V36.495A6.447,6.447,0,0,0,53.617,30H16V15.667h5a1,1,0,0,0,.97-1.243L19.3,3.757A1,1,0,0,0,18.333,3H11.667a1,1,0,0,0-.971.757L8.03,14.424A1,1,0,0,0,9,15.667h5V30H9.383A6.447,6.447,0,0,0,3,36.495V41H2.292A2.294,2.294,0,0,0,0,43.292V56a1,1,0,0,0,1,1H3v1.561A2.442,2.442,0,0,0,5.439,61H58.561A2.442,2.442,0,0,0,61,58.561V57h2a1,1,0,0,0,1-1V43.292A2.294,2.294,0,0,0,61.708,41ZM10.281,13.667,12.447,5h5.106l2.166,8.667ZM4.966,36.495A4.462,4.462,0,0,1,9.383,32H53.617a4.462,4.462,0,0,1,4.417,4.495V41h-.742A2.294,2.294,0,0,0,55,43.292V46H9V43.292A2.294,2.294,0,0,0,6.708,41H4.966ZM55,48v7H9V48ZM2,55V43.292A.292.292,0,0,1,2.292,43H6.708A.292.292,0,0,1,7,43.292V55Zm57,3.561a.44.44,0,0,1-.439.439H5.439A.44.44,0,0,1,5,58.561V57H59ZM62,55H57V43.292A.292.292,0,0,1,57.292,43h4.416a.292.292,0,0,1,.292.292Z"/>
  <rect x="14" y="34" width="2" height="2"/>
  <rect x="14" y="40" width="2" height="2"/>
  <rect x="48" y="34" width="2" height="2"/>
  <rect x="48" y="40" width="2" height="2"/>
  <rect x="31" y="34" width="2" height="2"/>
  <rect x="31" y="40" width="2" height="2"/>
  <path d="M26,27H59a1,1,0,0,0,1-1V5a1,1,0,0,0-1-1H26a1,1,0,0,0-1,1V26A1,1,0,0,0,26,27ZM27,6H58V25H27Z"/>
  <path d="M56,7H29a1,1,0,0,0-1,1V23a1,1,0,0,0,1,1H56a1,1,0,0,0,1-1V8A1,1,0,0,0,56,7ZM55,22H30V9H55Z"/>
</symbol>

<symbol id="mail" preserveAspectRatio="xMinYMin meet" xmlns="http://www.w3.org/2000/svg" viewBox="0 0 47.25 32">
  <g fill="none">
    <rect stroke-width="2px" stroke-linecap="round" stroke-linejoin="round" class="cls-1" x="1" y="1" width="45.25" height="30" rx="1"/>
    <path stroke-width="2px" stroke-linecap="round" stroke-linejoin="round" class="cls-1" d="M46.25,2l-22,17.78a1,1,0,0,1-1.29,0L1,2"/>
    <line stroke-width="2px" stroke-linecap="round" stroke-linejoin="round" class="cls-1" x1="45.5" y1="31" x2="28.95" y2="16"/>
    <line stroke-width="2px" stroke-linecap="round" stroke-linejoin="round" class="cls-1" x1="2" y1="31" x2="18" y2="16.5"/>
  </g>
</symbol>

<symbol id="not-found" preserveAspectRatio="xMinYMin meet" viewBox="0 0 700 700">
 <g>
  <path d="m603.75 17.5h-507.5c-4.8398 0-8.75 3.9102-8.75 8.75v507.5c0 4.8398 3.9102 8.75 8.75 8.75h507.5c4.8398 0 8.75-3.9102 8.75-8.75v-507.5c0-4.8398-3.9102-8.75-8.75-8.75zm-367.5 507.5v-17.5c0-33.766 27.484-61.25 61.25-61.25h105c33.766 0 61.25 27.484 61.25 61.25v17.5zm-43.75-175h-17.5v-87.5h17.5zm17.5-140h280v218.75h-280zm131.25-61.25c0-4.8281 3.9219-8.75 8.75-8.75s8.75 3.9219 8.75 8.75-3.9219 8.75-8.75 8.75-8.75-3.9219-8.75-8.75zm166.25 113.75h17.5v87.5h-17.5zm87.5 262.5h-113.75v-17.5c0-24.727-11.48-46.805-29.355-61.25h46.855c4.8398 0 8.75-3.9102 8.75-8.75v-70h26.25c4.8398 0 8.75-3.9102 8.75-8.75v-105c0-4.8398-3.9102-8.75-8.75-8.75h-26.25v-43.75c0-4.8398-3.9102-8.75-8.75-8.75h-140v-19.109c10.16-3.6211 17.5-13.246 17.5-24.641 0-14.473-11.777-26.25-26.25-26.25s-26.25 11.777-26.25 26.25c0 11.391 7.3398 21.016 17.5 24.641v19.109h-140c-4.8398 0-8.75 3.9102-8.75 8.75v43.75h-26.25c-4.8398 0-8.75 3.9102-8.75 8.75v105c0 4.8398 3.9102 8.75 8.75 8.75h26.25v70c0 4.8398 3.9102 8.75 8.75 8.75h46.855c-17.875 14.445-29.355 36.523-29.355 61.25v17.5h-113.75v-420h490zm0-437.5h-490v-52.5h490z"/>
  <path d="m122.5 52.5h17.5v17.5h-17.5z"/>
  <path d="m157.5 52.5h17.5v17.5h-17.5z"/>
  <path d="m192.5 52.5h17.5v17.5h-17.5z"/>
  <path d="m315 52.5h262.5v17.5h-262.5z"/>
  <path d="m308.81 329.94 12.375-12.375-24.441-24.438 24.441-24.438-12.375-12.375-24.438 24.441-24.438-24.441-12.375 12.375 24.441 24.438-24.441 24.438 12.375 12.375 24.438-24.441z"/>
  <path d="m391.19 329.94 24.438-24.441 24.438 24.441 12.375-12.375-24.441-24.438 24.441-24.438-12.375-12.375-24.438 24.441-24.438-24.441-12.375 12.375 24.441 24.438-24.441 24.438z"/>
  <path d="m402.5 411.25c4.8398 0 8.75-3.9102 8.75-8.75 0-33.766-27.484-61.25-61.25-61.25s-61.25 27.484-61.25 61.25c0 4.8398 3.9102 8.75 8.75 8.75zm-52.5-52.5c21.133 0 38.805 15.059 42.867 35h-85.742c4.0703-19.941 21.742-35 42.875-35z"/>
 </g>
</symbol>

<symbol id="phone" preserveAspectRatio="xMinYMin meet" viewBox="0 0 48 48">
  <path d="M46.557,37.182l-9-6.014c-1.498-1.002-2.941-0.967-4.189,0.059c-3.504,2.873-5.582,2.049-5.92,1.879 c-1.982-0.992-3.854-1.928-6.741-4.813c-3.584-3.586-4.878-5.875-5.812-7.74c-0.373-0.746-0.803-3.254,1.65-5.869 c1.147-1.221,1.253-2.721,0.299-4.221c-0.735-1.156-0.735-1.156-1.313-2.006c-0.57-0.84-1.709-2.518-4.713-7.014 C10.169,0.473,9.247,0,8,0C6.586,0,5.87,0.717,5.293,1.293l-3,3C0.169,6.416,0,7.633,0,9c0,1.721,2.485,12.939,14.292,24.705 C26.061,45.514,37.268,48,38.988,48h0.066c1.355-0.02,2.559-0.199,4.652-2.293l3-3C47.283,42.131,48,41.414,48,40 C48,38.752,47.527,37.83,46.557,37.182z M45.293,41.293l-3,3c-1.684,1.684-2.416,1.695-3.305,1.707 c-0.123-0.004-10.891-1.273-23.282-13.709C3.415,20.043,2.002,9.096,2,9c0-0.887,0-1.586,1.706-3.293l3-3C7.233,2.182,7.443,2,8,2 c0.653,0,0.927,0.213,1.156,0.555c3.009,4.504,4.15,6.186,4.721,7.025c0.563,0.828,0.563,0.828,1.28,1.957 c0.568,0.893,0.302,1.383-0.07,1.779c-3.121,3.324-2.66,6.771-1.981,8.131c1.003,2.006,2.39,4.463,6.187,8.26 c3.115,3.115,5.223,4.168,7.26,5.188c0.561,0.279,1.293,0.434,2.063,0.434c1.326,0,3.445-0.443,6.02-2.555 c0.365-0.301,0.625-0.336,0.789-0.336c0.287,0,0.631,0.133,1.021,0.395l9,6.012C45.787,39.072,46,39.346,46,40 C46,40.557,45.818,40.768,45.293,41.293z"/>
</symbol>

<symbol id="tiktok" preserveAspectRatio="xMinYMin meet" viewBox="0 0 448 512">
  <path d="M448 209.9a210.1 210.1 0 0 1 -122.8-39.3V349.4A162.6 162.6 0 1 1 185 188.3V278.2a74.6 74.6 0 1 0 52.2 71.2V0l88 0a121.2 121.2 0 0 0 1.9 22.2h0A122.2 122.2 0 0 0 381 102.4a121.4 121.4 0 0 0 67 20.1z"/>
</symbol>

</defs>
</svg>